<?xml version="1.0" encoding="UTF-8" standalone="no"?>
<!DOCTYPE svg PUBLIC "-//W3C//DTD SVG 1.1//EN"
 "http://www.w3.org/Graphics/SVG/1.1/DTD/svg11.dtd">
<!-- Generated by graphviz version 2.40.1 (20161225.0304)
 -->
<!-- Title: vnxgraph Pages: 1 -->
<svg width="2097pt" height="675pt"
 viewBox="0.00 0.00 2097.00 675.00" xmlns="http://www.w3.org/2000/svg" xmlns:xlink="http://www.w3.org/1999/xlink">
<g id="graph0" class="graph" transform="scale(1 1) rotate(0) translate(4 671)">
<title>vnxgraph</title>
<polygon fill="#ffffff" stroke="transparent" points="-4,4 -4,-671 2093,-671 2093,4 -4,4"/>
<g id="clust1" class="cluster">
<title>cluster_6bbf5f0268ecb3be</title>
<polygon fill="none" stroke="#000000" points="8,-8 8,-659 2081,-659 2081,-8 8,-8"/>
<text text-anchor="middle" x="54" y="-643.8" font-family="Times,serif" font-size="14.00" fill="#000000">vnxwebserver</text>
</g>
<!-- 6bbf5f0268ecb3be -->
<!-- 0ca1728d9fac7aab -->
<g id="node2" class="node">
<title>0ca1728d9fac7aab</title>
<polygon fill="#d3d3d3" stroke="#000000" points="1536.5,-412 1443.5,-412 1443.5,-376 1536.5,-376 1536.5,-412"/>
<text text-anchor="middle" x="1490" y="-390.3" font-family="Times,serif" font-size="14.00" fill="#000000">HttpProcessor</text>
</g>
<!-- server.http.response -->
<g id="node5" class="node">
<title>server.http.response</title>
<ellipse fill="none" stroke="#000000" cx="863" cy="-322" rx="81.4863" ry="18"/>
<text text-anchor="middle" x="863" y="-318.3" font-family="Times,serif" font-size="14.00" fill="#000000">server.http.response</text>
</g>
<!-- 0ca1728d9fac7aab&#45;&gt;server.http.response -->
<g id="edge3" class="edge">
<title>0ca1728d9fac7aab&#45;&gt;server.http.response</title>
<path fill="none" stroke="#0000cd" d="M1443.3853,-388.6471C1337.7241,-376.5138 1078.8489,-346.7865 945.4469,-331.4676"/>
<polygon fill="#0000cd" stroke="#0000cd" points="945.6152,-327.964 935.2811,-330.3002 944.8165,-334.9183 945.6152,-327.964"/>
</g>
<!-- server.cache.request -->
<g id="node6" class="node">
<title>server.cache.request</title>
<ellipse fill="none" stroke="#000000" cx="1490" cy="-322" rx="82.5854" ry="18"/>
<text text-anchor="middle" x="1490" y="-318.3" font-family="Times,serif" font-size="14.00" fill="#000000">server.cache.request</text>
</g>
<!-- 0ca1728d9fac7aab&#45;&gt;server.cache.request -->
<g id="edge4" class="edge">
<title>0ca1728d9fac7aab&#45;&gt;server.cache.request</title>
<path fill="none" stroke="#0000cd" d="M1490,-375.8314C1490,-368.131 1490,-358.9743 1490,-350.4166"/>
<polygon fill="#0000cd" stroke="#0000cd" points="1493.5001,-350.4132 1490,-340.4133 1486.5001,-350.4133 1493.5001,-350.4132"/>
</g>
<!-- server.http.request -->
<g id="node3" class="node">
<title>server.http.request</title>
<ellipse fill="none" stroke="#000000" cx="1490" cy="-466" rx="76.0865" ry="18"/>
<text text-anchor="middle" x="1490" y="-462.3" font-family="Times,serif" font-size="14.00" fill="#000000">server.http.request</text>
</g>
<!-- server.http.request&#45;&gt;0ca1728d9fac7aab -->
<g id="edge1" class="edge">
<title>server.http.request&#45;&gt;0ca1728d9fac7aab</title>
<path fill="none" stroke="#cd0000" d="M1490,-447.8314C1490,-440.131 1490,-430.9743 1490,-422.4166"/>
<polygon fill="#cd0000" stroke="#cd0000" points="1493.5001,-422.4132 1490,-412.4133 1486.5001,-422.4133 1493.5001,-422.4132"/>
</g>
<!-- server.http.processor -->
<g id="node4" class="node">
<title>server.http.processor</title>
<ellipse fill="none" stroke="#000000" cx="1969" cy="-178" rx="84.485" ry="18"/>
<text text-anchor="middle" x="1969" y="-174.3" font-family="Times,serif" font-size="14.00" fill="#000000">server.http.processor</text>
</g>
<!-- server.http.processor&#45;&gt;0ca1728d9fac7aab -->
<g id="edge2" class="edge">
<title>server.http.processor&#45;&gt;0ca1728d9fac7aab</title>
<path fill="none" stroke="#cd0000" d="M1932.7317,-194.3548C1847.7741,-232.6656 1635.788,-328.2584 1539.2649,-371.7845"/>
<polygon fill="#cd0000" stroke="#cd0000" points="1537.6926,-368.654 1530.0154,-375.9555 1540.5702,-375.0353 1537.6926,-368.654"/>
</g>
<!-- f4dd7aff6c492cb9 -->
<g id="node29" class="node">
<title>f4dd7aff6c492cb9</title>
<polygon fill="#d3d3d3" stroke="#000000" points="593,-268 503,-268 503,-232 593,-232 593,-268"/>
<text text-anchor="middle" x="548" y="-246.3" font-family="Times,serif" font-size="14.00" fill="#000000">HttpRenderer</text>
</g>
<!-- server.http.response&#45;&gt;f4dd7aff6c492cb9 -->
<g id="edge35" class="edge">
<title>server.http.response&#45;&gt;f4dd7aff6c492cb9</title>
<path fill="none" stroke="#cd0000" d="M806.3205,-309.0447C748.672,-295.8679 659.9348,-275.5851 602.9266,-262.5546"/>
<polygon fill="#cd0000" stroke="#cd0000" points="603.5433,-259.1054 593.0148,-260.2891 601.9834,-265.9294 603.5433,-259.1054"/>
</g>
<!-- bc08a51054844bcd -->
<g id="node25" class="node">
<title>bc08a51054844bcd</title>
<polygon fill="#d3d3d3" stroke="#000000" points="1517,-268 1463,-268 1463,-232 1517,-232 1517,-268"/>
<text text-anchor="middle" x="1490" y="-246.3" font-family="Times,serif" font-size="14.00" fill="#000000">Cache</text>
</g>
<!-- server.cache.request&#45;&gt;bc08a51054844bcd -->
<g id="edge24" class="edge">
<title>server.cache.request&#45;&gt;bc08a51054844bcd</title>
<path fill="none" stroke="#cd0000" d="M1490,-303.8314C1490,-296.131 1490,-286.9743 1490,-278.4166"/>
<polygon fill="#cd0000" stroke="#cd0000" points="1493.5001,-278.4132 1490,-268.4133 1486.5001,-278.4133 1493.5001,-278.4132"/>
</g>
<!-- 278639d58aa25856 -->
<g id="node7" class="node">
<title>278639d58aa25856</title>
<polygon fill="#d3d3d3" stroke="#000000" points="1527,-556 1453,-556 1453,-520 1527,-520 1527,-556"/>
<text text-anchor="middle" x="1490" y="-534.3" font-family="Times,serif" font-size="14.00" fill="#000000">HttpParser</text>
</g>
<!-- 278639d58aa25856&#45;&gt;server.http.request -->
<g id="edge6" class="edge">
<title>278639d58aa25856&#45;&gt;server.http.request</title>
<path fill="none" stroke="#0000cd" d="M1490,-519.8314C1490,-512.131 1490,-502.9743 1490,-494.4166"/>
<polygon fill="#0000cd" stroke="#0000cd" points="1493.5001,-494.4132 1490,-484.4133 1486.5001,-494.4133 1493.5001,-494.4132"/>
</g>
<!-- server.frontend.client_data -->
<g id="node8" class="node">
<title>server.frontend.client_data</title>
<ellipse fill="none" stroke="#000000" cx="1490" cy="-610" rx="105.0817" ry="18"/>
<text text-anchor="middle" x="1490" y="-606.3" font-family="Times,serif" font-size="14.00" fill="#000000">server.frontend.client_data</text>
</g>
<!-- server.frontend.client_data&#45;&gt;278639d58aa25856 -->
<g id="edge5" class="edge">
<title>server.frontend.client_data&#45;&gt;278639d58aa25856</title>
<path fill="none" stroke="#cd0000" d="M1490,-591.8314C1490,-584.131 1490,-574.9743 1490,-566.4166"/>
<polygon fill="#cd0000" stroke="#cd0000" points="1493.5001,-566.4132 1490,-556.4133 1486.5001,-566.4133 1493.5001,-566.4132"/>
</g>
<!-- 565bf00841c2720a -->
<g id="node9" class="node">
<title>565bf00841c2720a</title>
<polygon fill="#d3d3d3" stroke="#000000" points="1022,-124 924,-124 924,-88 1022,-88 1022,-124"/>
<text text-anchor="middle" x="973" y="-102.3" font-family="Times,serif" font-size="14.00" fill="#000000">ViewProcessor</text>
</g>
<!-- 565bf00841c2720a&#45;&gt;server.cache.request -->
<g id="edge10" class="edge">
<title>565bf00841c2720a&#45;&gt;server.cache.request</title>
<path fill="none" stroke="#0000cd" d="M923.7417,-119.6767C903.7331,-127.9217 882.627,-140.6886 871,-160 862.7471,-173.7073 860.8773,-183.6092 871,-196 936.7293,-276.4566 1244.2205,-306.8376 1399.6158,-317.1949"/>
<polygon fill="#0000cd" stroke="#0000cd" points="1399.4204,-320.6895 1409.6272,-317.8485 1399.8765,-313.7044 1399.4204,-320.6895"/>
</g>
<!-- server.cache.channel -->
<g id="node12" class="node">
<title>server.cache.channel</title>
<ellipse fill="none" stroke="#000000" cx="1490" cy="-34" rx="84.485" ry="18"/>
<text text-anchor="middle" x="1490" y="-30.3" font-family="Times,serif" font-size="14.00" fill="#000000">server.cache.channel</text>
</g>
<!-- 565bf00841c2720a&#45;&gt;server.cache.channel -->
<g id="edge9" class="edge">
<title>565bf00841c2720a&#45;&gt;server.cache.channel</title>
<path fill="none" stroke="#0000cd" d="M1022.1042,-99.1615C1111.3189,-86.737 1300.795,-60.3496 1409.2728,-45.2425"/>
<polygon fill="#0000cd" stroke="#0000cd" points="1409.7684,-48.7073 1419.19,-43.8614 1408.8028,-41.7742 1409.7684,-48.7073"/>
</g>
<!-- server.domain -->
<g id="node13" class="node">
<title>server.domain</title>
<ellipse fill="none" stroke="#000000" cx="917" cy="-34" rx="61.99" ry="18"/>
<text text-anchor="middle" x="917" y="-30.3" font-family="Times,serif" font-size="14.00" fill="#000000">server.domain</text>
</g>
<!-- 565bf00841c2720a&#45;&gt;server.domain -->
<g id="edge11" class="edge">
<title>565bf00841c2720a&#45;&gt;server.domain</title>
<path fill="none" stroke="#0000cd" d="M958.8688,-87.8314C952.3197,-79.411 944.4163,-69.2495 937.2485,-60.0338"/>
<polygon fill="#0000cd" stroke="#0000cd" points="939.8348,-57.6581 930.9327,-51.9134 934.3094,-61.9558 939.8348,-57.6581"/>
</g>
<!-- server.dynamic.request -->
<g id="node10" class="node">
<title>server.dynamic.request</title>
<ellipse fill="none" stroke="#000000" cx="973" cy="-178" rx="92.8835" ry="18"/>
<text text-anchor="middle" x="973" y="-174.3" font-family="Times,serif" font-size="14.00" fill="#000000">server.dynamic.request</text>
</g>
<!-- server.dynamic.request&#45;&gt;565bf00841c2720a -->
<g id="edge7" class="edge">
<title>server.dynamic.request&#45;&gt;565bf00841c2720a</title>
<path fill="none" stroke="#cd0000" d="M973,-159.8314C973,-152.131 973,-142.9743 973,-134.4166"/>
<polygon fill="#cd0000" stroke="#cd0000" points="976.5001,-134.4132 973,-124.4133 969.5001,-134.4133 976.5001,-134.4132"/>
</g>
<!-- server.dynamic.channel -->
<g id="node11" class="node">
<title>server.dynamic.channel</title>
<ellipse fill="none" stroke="#000000" cx="1179" cy="-178" rx="94.7833" ry="18"/>
<text text-anchor="middle" x="1179" y="-174.3" font-family="Times,serif" font-size="14.00" fill="#000000">server.dynamic.channel</text>
</g>
<!-- server.dynamic.channel&#45;&gt;565bf00841c2720a -->
<g id="edge8" class="edge">
<title>server.dynamic.channel&#45;&gt;565bf00841c2720a</title>
<path fill="none" stroke="#cd0000" d="M1133.5374,-162.1102C1103.6864,-151.6768 1064.342,-137.9254 1032.0747,-126.6475"/>
<polygon fill="#cd0000" stroke="#cd0000" points="1032.9012,-123.2288 1022.3063,-123.2333 1030.5915,-129.8368 1032.9012,-123.2288"/>
</g>
<!-- server.cache.channel&#45;&gt;bc08a51054844bcd -->
<g id="edge23" class="edge">
<title>server.cache.channel&#45;&gt;bc08a51054844bcd</title>
<path fill="none" stroke="#cd0000" d="M1568.1595,-40.8801C1699.5174,-55.3404 1942.1617,-96.1931 1856,-196 1834.649,-220.7322 1616.0123,-240.2637 1527.1991,-247.2369"/>
<polygon fill="#cd0000" stroke="#cd0000" points="1526.7335,-243.7624 1517.0338,-248.0245 1527.2743,-250.7414 1526.7335,-243.7624"/>
</g>
<!-- 5752a09a927a8de8 -->
<g id="node14" class="node">
<title>5752a09a927a8de8</title>
<polygon fill="#d3d3d3" stroke="#000000" points="580,-124 482,-124 482,-88 580,-88 580,-124"/>
<text text-anchor="middle" x="531" y="-102.3" font-family="Times,serif" font-size="14.00" fill="#000000">ViewProcessor</text>
</g>
<!-- 5752a09a927a8de8&#45;&gt;server.domain -->
<g id="edge14" class="edge">
<title>5752a09a927a8de8&#45;&gt;server.domain</title>
<path fill="none" stroke="#0000cd" d="M580.2792,-96.808C650.3031,-83.7466 778.558,-59.8234 854.9676,-45.5708"/>
<polygon fill="#0000cd" stroke="#0000cd" points="855.7474,-48.9858 864.9361,-43.7114 854.4638,-42.1045 855.7474,-48.9858"/>
</g>
<!-- server.default.request -->
<g id="node15" class="node">
<title>server.default.request</title>
<ellipse fill="none" stroke="#000000" cx="531" cy="-178" rx="87.1846" ry="18"/>
<text text-anchor="middle" x="531" y="-174.3" font-family="Times,serif" font-size="14.00" fill="#000000">server.default.request</text>
</g>
<!-- server.default.request&#45;&gt;5752a09a927a8de8 -->
<g id="edge12" class="edge">
<title>server.default.request&#45;&gt;5752a09a927a8de8</title>
<path fill="none" stroke="#cd0000" d="M531,-159.8314C531,-152.131 531,-142.9743 531,-134.4166"/>
<polygon fill="#cd0000" stroke="#cd0000" points="534.5001,-134.4132 531,-124.4133 527.5001,-134.4133 534.5001,-134.4132"/>
</g>
<!-- server.default.channel -->
<g id="node16" class="node">
<title>server.default.channel</title>
<ellipse fill="none" stroke="#000000" cx="105" cy="-178" rx="89.0842" ry="18"/>
<text text-anchor="middle" x="105" y="-174.3" font-family="Times,serif" font-size="14.00" fill="#000000">server.default.channel</text>
</g>
<!-- server.default.channel&#45;&gt;5752a09a927a8de8 -->
<g id="edge13" class="edge">
<title>server.default.channel&#45;&gt;5752a09a927a8de8</title>
<path fill="none" stroke="#cd0000" d="M170.5999,-165.778C181.4182,-163.8122 192.5191,-161.8251 203,-160 296.7698,-143.6711 405.8551,-125.969 471.6027,-115.4404"/>
<polygon fill="#cd0000" stroke="#cd0000" points="472.4521,-118.8492 481.7737,-113.8136 471.3464,-111.937 472.4521,-118.8492"/>
</g>
<!-- 622d685fd9f1df06 -->
<g id="node17" class="node">
<title>622d685fd9f1df06</title>
<polygon fill="#d3d3d3" stroke="#000000" points="1638,-124 1540,-124 1540,-88 1638,-88 1638,-124"/>
<text text-anchor="middle" x="1589" y="-102.3" font-family="Times,serif" font-size="14.00" fill="#000000">ViewProcessor</text>
</g>
<!-- 622d685fd9f1df06&#45;&gt;server.cache.request -->
<g id="edge19" class="edge">
<title>622d685fd9f1df06&#45;&gt;server.cache.request</title>
<path fill="none" stroke="#0000cd" d="M1638.2618,-107.9799C1753.7061,-113.1244 2034.1071,-128.7415 2062,-160 2072.6528,-171.9381 2072.0232,-183.5286 2062,-196 2002.3966,-270.1617 1724.2851,-303.2282 1578.9695,-315.6517"/>
<polygon fill="#0000cd" stroke="#0000cd" points="1578.4131,-312.1861 1568.7411,-316.5109 1578.999,-319.1615 1578.4131,-312.1861"/>
</g>
<!-- 622d685fd9f1df06&#45;&gt;server.cache.channel -->
<g id="edge17" class="edge">
<title>622d685fd9f1df06&#45;&gt;server.cache.channel</title>
<path fill="none" stroke="#0000cd" d="M1564.0181,-87.8314C1551.3053,-78.5857 1535.7059,-67.2407 1522.1112,-57.3536"/>
<polygon fill="#0000cd" stroke="#0000cd" points="1524.0953,-54.4689 1513.9494,-51.4177 1519.9781,-60.1301 1524.0953,-54.4689"/>
</g>
<!-- 622d685fd9f1df06&#45;&gt;server.domain -->
<g id="edge18" class="edge">
<title>622d685fd9f1df06&#45;&gt;server.domain</title>
<path fill="none" stroke="#0000cd" d="M1539.7056,-99.879C1510.4511,-96.2978 1472.6256,-91.7565 1439,-88 1276.6152,-69.8589 1085.5656,-50.6337 985.7071,-40.7464"/>
<polygon fill="#0000cd" stroke="#0000cd" points="986.0422,-37.2626 975.7462,-39.7612 985.3531,-44.2286 986.0422,-37.2626"/>
</g>
<!-- server.page.request -->
<g id="node18" class="node">
<title>server.page.request</title>
<ellipse fill="none" stroke="#000000" cx="1768" cy="-178" rx="79.0865" ry="18"/>
<text text-anchor="middle" x="1768" y="-174.3" font-family="Times,serif" font-size="14.00" fill="#000000">server.page.request</text>
</g>
<!-- server.page.request&#45;&gt;622d685fd9f1df06 -->
<g id="edge15" class="edge">
<title>server.page.request&#45;&gt;622d685fd9f1df06</title>
<path fill="none" stroke="#cd0000" d="M1728.7177,-162.1993C1703.6776,-152.1273 1670.8836,-138.9364 1643.3603,-127.8656"/>
<polygon fill="#cd0000" stroke="#cd0000" points="1644.4498,-124.5314 1633.8661,-124.0467 1641.8375,-131.0257 1644.4498,-124.5314"/>
</g>
<!-- server.page.channel -->
<g id="node19" class="node">
<title>server.page.channel</title>
<ellipse fill="none" stroke="#000000" cx="1589" cy="-178" rx="81.4863" ry="18"/>
<text text-anchor="middle" x="1589" y="-174.3" font-family="Times,serif" font-size="14.00" fill="#000000">server.page.channel</text>
</g>
<!-- server.page.channel&#45;&gt;622d685fd9f1df06 -->
<g id="edge16" class="edge">
<title>server.page.channel&#45;&gt;622d685fd9f1df06</title>
<path fill="none" stroke="#cd0000" d="M1589,-159.8314C1589,-152.131 1589,-142.9743 1589,-134.4166"/>
<polygon fill="#cd0000" stroke="#cd0000" points="1592.5001,-134.4132 1589,-124.4133 1585.5001,-134.4133 1592.5001,-134.4132"/>
</g>
<!-- 6c44f408ec8788f6 -->
<g id="node20" class="node">
<title>6c44f408ec8788f6</title>
<polygon fill="#d3d3d3" stroke="#000000" points="1307.5,-628 1240.5,-628 1240.5,-592 1307.5,-592 1307.5,-628"/>
<text text-anchor="middle" x="1274" y="-606.3" font-family="Times,serif" font-size="14.00" fill="#000000">Terminal</text>
</g>
<!-- 7d7b0aff9eeded4e -->
<g id="node21" class="node">
<title>7d7b0aff9eeded4e</title>
<polygon fill="#d3d3d3" stroke="#000000" points="1104,-628 1038,-628 1038,-592 1104,-592 1104,-628"/>
<text text-anchor="middle" x="1071" y="-606.3" font-family="Times,serif" font-size="14.00" fill="#000000">Database</text>
</g>
<!-- ac624d19bb04cd68 -->
<g id="node22" class="node">
<title>ac624d19bb04cd68</title>
<polygon fill="#d3d3d3" stroke="#000000" points="783.5,-628 718.5,-628 718.5,-592 783.5,-592 783.5,-628"/>
<text text-anchor="middle" x="751" y="-606.3" font-family="Times,serif" font-size="14.00" fill="#000000">Frontend</text>
</g>
<!-- baf72d37c75b5ba8 -->
<g id="node23" class="node">
<title>baf72d37c75b5ba8</title>
<polygon fill="#d3d3d3" stroke="#000000" points="1430,-124 1352,-124 1352,-88 1430,-88 1430,-124"/>
<text text-anchor="middle" x="1391" y="-102.3" font-family="Times,serif" font-size="14.00" fill="#000000">FileSystem</text>
</g>
<!-- baf72d37c75b5ba8&#45;&gt;server.cache.channel -->
<g id="edge21" class="edge">
<title>baf72d37c75b5ba8&#45;&gt;server.cache.channel</title>
<path fill="none" stroke="#0000cd" d="M1415.9819,-87.8314C1428.6947,-78.5857 1444.2941,-67.2407 1457.8888,-57.3536"/>
<polygon fill="#0000cd" stroke="#0000cd" points="1460.0219,-60.1301 1466.0506,-51.4177 1455.9047,-54.4689 1460.0219,-60.1301"/>
</g>
<!-- baf72d37c75b5ba8&#45;&gt;server.domain -->
<g id="edge22" class="edge">
<title>baf72d37c75b5ba8&#45;&gt;server.domain</title>
<path fill="none" stroke="#0000cd" d="M1351.8073,-100.0467C1270.3198,-87.6688 1081.9048,-59.0488 981.9683,-43.8686"/>
<polygon fill="#0000cd" stroke="#0000cd" points="982.405,-40.3949 971.9928,-42.3533 981.3537,-47.3155 982.405,-40.3949"/>
</g>
<!-- server.filesystem.request -->
<g id="node24" class="node">
<title>server.filesystem.request</title>
<ellipse fill="none" stroke="#000000" cx="1391" cy="-178" rx="98.5829" ry="18"/>
<text text-anchor="middle" x="1391" y="-174.3" font-family="Times,serif" font-size="14.00" fill="#000000">server.filesystem.request</text>
</g>
<!-- server.filesystem.request&#45;&gt;baf72d37c75b5ba8 -->
<g id="edge20" class="edge">
<title>server.filesystem.request&#45;&gt;baf72d37c75b5ba8</title>
<path fill="none" stroke="#cd0000" d="M1391,-159.8314C1391,-152.131 1391,-142.9743 1391,-134.4166"/>
<polygon fill="#cd0000" stroke="#cd0000" points="1394.5001,-134.4132 1391,-124.4133 1387.5001,-134.4133 1394.5001,-134.4132"/>
</g>
<!-- bc08a51054844bcd&#45;&gt;server.http.processor -->
<g id="edge27" class="edge">
<title>bc08a51054844bcd&#45;&gt;server.http.processor</title>
<path fill="none" stroke="#0000cd" d="M1517.3154,-246.5182C1579.9661,-238.4471 1738.7892,-217.5019 1871,-196 1879.0115,-194.6971 1887.3785,-193.267 1895.7014,-191.8003"/>
<polygon fill="#0000cd" stroke="#0000cd" points="1896.5745,-195.1999 1905.805,-189.9991 1895.3459,-188.3086 1896.5745,-195.1999"/>
</g>
<!-- bc08a51054844bcd&#45;&gt;server.dynamic.request -->
<g id="edge30" class="edge">
<title>bc08a51054844bcd&#45;&gt;server.dynamic.request</title>
<path fill="none" stroke="#0000cd" d="M1462.7487,-246.887C1396.3181,-239.2042 1220.7904,-218.3373 1075,-196 1067.1021,-194.7899 1058.8731,-193.4576 1050.6657,-192.082"/>
<polygon fill="#0000cd" stroke="#0000cd" points="1051.1338,-188.6115 1040.6889,-190.3879 1049.9618,-195.5127 1051.1338,-188.6115"/>
</g>
<!-- bc08a51054844bcd&#45;&gt;server.dynamic.channel -->
<g id="edge32" class="edge">
<title>bc08a51054844bcd&#45;&gt;server.dynamic.channel</title>
<path fill="none" stroke="#0000cd" d="M1462.9448,-243.7364C1415.6881,-232.796 1316.7015,-209.8794 1249.0351,-194.2139"/>
<polygon fill="#0000cd" stroke="#0000cd" points="1249.8205,-190.8032 1239.2887,-191.9575 1248.2416,-197.6229 1249.8205,-190.8032"/>
</g>
<!-- bc08a51054844bcd&#45;&gt;server.domain -->
<g id="edge29" class="edge">
<title>bc08a51054844bcd&#45;&gt;server.domain</title>
<path fill="none" stroke="#0000cd" d="M1452.5759,-249.6063C1324.6369,-247.8772 910.3911,-238.9771 871,-196 836.034,-157.8508 871.4094,-95.0119 896.5724,-59.8615"/>
<polygon fill="#0000cd" stroke="#0000cd" points="1452.6284,-253.1072 1462.6724,-249.7357 1452.7182,-246.1077 1452.6284,-253.1072"/>
<polygon fill="#0000cd" stroke="#0000cd" points="899.5813,-61.6785 902.7008,-51.5533 893.948,-57.5232 899.5813,-61.6785"/>
</g>
<!-- bc08a51054844bcd&#45;&gt;server.page.request -->
<g id="edge26" class="edge">
<title>bc08a51054844bcd&#45;&gt;server.page.request</title>
<path fill="none" stroke="#0000cd" d="M1517.162,-242.9652C1560.5575,-231.7261 1646.6458,-209.4299 1705.7562,-194.1207"/>
<polygon fill="#0000cd" stroke="#0000cd" points="1706.9277,-197.4329 1715.7307,-191.5374 1705.1726,-190.6564 1706.9277,-197.4329"/>
</g>
<!-- bc08a51054844bcd&#45;&gt;server.page.channel -->
<g id="edge28" class="edge">
<title>bc08a51054844bcd&#45;&gt;server.page.channel</title>
<path fill="none" stroke="#0000cd" d="M1514.9819,-231.8314C1527.6947,-222.5857 1543.2941,-211.2407 1556.8888,-201.3536"/>
<polygon fill="#0000cd" stroke="#0000cd" points="1559.0219,-204.1301 1565.0506,-195.4177 1554.9047,-198.4689 1559.0219,-204.1301"/>
</g>
<!-- bc08a51054844bcd&#45;&gt;server.filesystem.request -->
<g id="edge31" class="edge">
<title>bc08a51054844bcd&#45;&gt;server.filesystem.request</title>
<path fill="none" stroke="#0000cd" d="M1465.0181,-231.8314C1452.4002,-222.6547 1436.9386,-211.4099 1423.4159,-201.5752"/>
<polygon fill="#0000cd" stroke="#0000cd" points="1425.4354,-198.7162 1415.2894,-195.665 1421.3182,-204.3774 1425.4354,-198.7162"/>
</g>
<!-- bfbfc459e7d27107 -->
<g id="node26" class="node">
<title>bfbfc459e7d27107</title>
<polygon fill="#d3d3d3" stroke="#000000" points="809.5,-124 714.5,-124 714.5,-88 809.5,-88 809.5,-124"/>
<text text-anchor="middle" x="762" y="-102.3" font-family="Times,serif" font-size="14.00" fill="#000000">DatabaseView</text>
</g>
<!-- bfbfc459e7d27107&#45;&gt;server.domain -->
<g id="edge34" class="edge">
<title>bfbfc459e7d27107&#45;&gt;server.domain</title>
<path fill="none" stroke="#0000cd" d="M801.113,-87.8314C823.5775,-77.3963 851.7988,-64.287 874.7671,-53.6178"/>
<polygon fill="#0000cd" stroke="#0000cd" points="876.338,-56.7474 883.9328,-49.3603 873.389,-50.3989 876.338,-56.7474"/>
</g>
<!-- server.database.request -->
<g id="node27" class="node">
<title>server.database.request</title>
<ellipse fill="none" stroke="#000000" cx="729" cy="-178" rx="92.8835" ry="18"/>
<text text-anchor="middle" x="729" y="-174.3" font-family="Times,serif" font-size="14.00" fill="#000000">server.database.request</text>
</g>
<!-- server.database.request&#45;&gt;bfbfc459e7d27107 -->
<g id="edge33" class="edge">
<title>server.database.request&#45;&gt;bfbfc459e7d27107</title>
<path fill="none" stroke="#cd0000" d="M737.3273,-159.8314C740.973,-151.8771 745.3309,-142.369 749.3627,-133.5723"/>
<polygon fill="#cd0000" stroke="#cd0000" points="752.5757,-134.9622 753.5606,-124.4133 746.2123,-132.0456 752.5757,-134.9622"/>
</g>
<!-- c462364c786f381a -->
<g id="node28" class="node">
<title>c462364c786f381a</title>
<polygon fill="#d3d3d3" stroke="#000000" points="228,-628 174,-628 174,-592 228,-592 228,-628"/>
<text text-anchor="middle" x="201" y="-606.3" font-family="Times,serif" font-size="14.00" fill="#000000">Server</text>
</g>
<!-- server.frontend.return_data -->
<g id="node30" class="node">
<title>server.frontend.return_data</title>
<ellipse fill="none" stroke="#000000" cx="319" cy="-178" rx="106.6812" ry="18"/>
<text text-anchor="middle" x="319" y="-174.3" font-family="Times,serif" font-size="14.00" fill="#000000">server.frontend.return_data</text>
</g>
<!-- f4dd7aff6c492cb9&#45;&gt;server.frontend.return_data -->
<g id="edge36" class="edge">
<title>f4dd7aff6c492cb9&#45;&gt;server.frontend.return_data</title>
<path fill="none" stroke="#0000cd" d="M502.757,-235.7751C467.4289,-224.6676 418.0109,-209.1301 379.3198,-196.9652"/>
<polygon fill="#0000cd" stroke="#0000cd" points="380.3187,-193.6104 369.7293,-193.9498 378.2191,-200.2881 380.3187,-193.6104"/>
</g>
</g>
</svg>
